<svg width="18" height="18" viewBox="0 0 18 18" fill="none" xmlns="http://www.w3.org/2000/svg">
<g id="&#240;&#159;&#166;&#134; icon &#34;github&#34;">
<path id="Vector" d="M12.2799 17.3719V15.0256C12.3106 14.6359 12.258 14.2439 12.1254 13.8761C11.9929 13.5082 11.7836 13.1727 11.5115 12.892C14.0784 12.6058 16.7762 11.633 16.7762 7.16948C16.7759 6.02811 16.3369 4.93051 15.5499 4.10386C15.9226 3.1053 15.8962 2.00154 15.4764 1.0219C15.4764 1.0219 14.5117 0.735772 12.2799 2.23179C10.4062 1.72398 8.43117 1.72398 6.55746 2.23179C4.32569 0.735772 3.36104 1.0219 3.36104 1.0219C2.94115 2.00154 2.9148 3.1053 3.28747 4.10386C2.49459 4.93665 2.05511 6.04417 2.06122 7.194C2.06122 11.6248 4.75895 12.5977 7.3259 12.9165C7.05694 13.1944 6.84952 13.5259 6.71711 13.8892C6.58472 14.2526 6.53032 14.6399 6.55746 15.0256V17.3719" stroke="#515151" stroke-width="1.22625" stroke-linecap="round" stroke-linejoin="round"/>
<path id="Vector_2" d="M6.55747 15.7368C4.10498 16.5324 2.06124 15.7368 0.834991 13.2843" stroke="#515151" stroke-width="1.22625" stroke-linecap="round" stroke-linejoin="round"/>
</g>
</svg>
