<svg width="86" height="40" viewBox="0 0 86 40" fill="none" xmlns="http://www.w3.org/2000/svg">
<path d="M11.6874 23.7628C11.9474 23.6682 12.3137 23.5501 12.7864 23.4082C13.267 23.2664 13.7909 23.0931 14.3581 22.8883C14.9332 22.6835 15.5162 22.4471 16.107 22.1793C16.6979 21.9114 17.2336 21.6041 17.7142 21.2575C18.1948 20.9109 18.5887 20.5248 18.8959 20.0994C19.2032 19.6661 19.3568 19.1895 19.3568 18.6695C19.3568 18.3308 19.3016 18.0393 19.1913 17.7951C19.0889 17.543 18.9471 17.3381 18.7659 17.1806C18.5847 17.0151 18.372 16.893 18.1278 16.8142C17.8914 16.7354 17.6393 16.6961 17.3715 16.6961C16.9933 16.6961 16.6073 16.8418 16.2134 17.1333C15.8274 17.4169 15.5044 17.8226 15.2444 18.3505H11.6874V12.9145C12.0025 12.7491 12.3649 12.5797 12.7746 12.4064C13.1921 12.2252 13.6688 12.0637 14.2045 11.9219C14.7402 11.7722 15.3468 11.654 16.0243 11.5674C16.7097 11.4728 17.4778 11.4256 18.3287 11.4256C19.6049 11.4256 20.7709 11.5634 21.8266 11.8392C22.8823 12.107 23.7882 12.5088 24.5445 13.0445C25.3009 13.5724 25.8838 14.2302 26.2935 15.018C26.711 15.8058 26.9198 16.7158 26.9198 17.7478C26.9198 18.4489 26.8213 19.0831 26.6244 19.6504C26.4274 20.2176 26.1674 20.7336 25.8444 21.1984C25.5293 21.6554 25.1669 22.0611 24.7573 22.4156C24.3476 22.7701 23.9301 23.0813 23.5046 23.3492C22.5356 23.9715 21.4012 24.4482 20.1013 24.779H26.8135V29.8486H11.6874V23.7628ZM38.5361 30.1913C37.638 30.1913 36.7714 30.1126 35.9364 29.955C35.1013 29.7974 34.3174 29.5571 33.5847 29.2341C32.8521 28.9033 32.1824 28.4818 31.5758 27.9697C30.9771 27.4497 30.461 26.8352 30.0277 26.1262C29.5944 25.4093 29.2596 24.59 29.0233 23.6682C28.7869 22.7465 28.6688 21.7105 28.6688 20.5603C28.6688 18.9925 28.9209 17.6375 29.4251 16.4952C29.9293 15.345 30.6225 14.3956 31.5049 13.6472C32.3872 12.8988 33.4272 12.3434 34.6246 11.981C35.83 11.6107 37.1338 11.4256 38.5361 11.4256C39.4343 11.4256 40.3009 11.5004 41.1359 11.6501C41.9789 11.7998 42.7667 12.0361 43.4994 12.3591C44.2321 12.6743 44.8978 13.076 45.4965 13.5645C46.1031 14.0529 46.6231 14.6359 47.0564 15.3134C47.4897 15.991 47.8245 16.767 48.0608 17.6414C48.2972 18.508 48.4153 19.481 48.4153 20.5603C48.4153 22.262 48.1554 23.7234 47.6354 24.9445C47.1233 26.1577 46.4182 27.1543 45.5201 27.9342C44.6299 28.7142 43.5821 29.2853 42.3767 29.6477C41.1793 30.0101 39.8991 30.1913 38.5361 30.1913ZM38.5361 16.826C38.1501 16.826 37.8232 16.893 37.5553 17.0269C37.2953 17.153 37.0787 17.3224 36.9054 17.5351C36.7399 17.7478 36.6099 17.9881 36.5154 18.2559C36.4287 18.5238 36.3618 18.7956 36.3145 19.0713C36.2751 19.3471 36.2515 19.6149 36.2436 19.8749C36.2357 20.1349 36.2318 20.3633 36.2318 20.5603C36.2318 20.7572 36.2357 20.9857 36.2436 21.2457C36.2515 21.5057 36.2751 21.7775 36.3145 22.0611C36.3618 22.3368 36.4287 22.6126 36.5154 22.8883C36.6099 23.164 36.7399 23.4122 36.9054 23.6328C37.0787 23.8455 37.2953 24.0188 37.5553 24.1527C37.8232 24.2867 38.1501 24.3536 38.5361 24.3536C38.9222 24.3536 39.2452 24.2867 39.5052 24.1527C39.773 24.0188 39.9897 23.8455 40.1551 23.6328C40.3284 23.4122 40.4624 23.164 40.5569 22.8883C40.6514 22.6126 40.7184 22.3368 40.7578 22.0611C40.8051 21.7775 40.8326 21.5057 40.8405 21.2457C40.8484 20.9857 40.8523 20.7572 40.8523 20.5603C40.8523 20.3633 40.8484 20.1349 40.8405 19.8749C40.8326 19.6149 40.8051 19.3471 40.7578 19.0713C40.7184 18.7956 40.6514 18.5238 40.5569 18.2559C40.4624 17.9881 40.3284 17.7478 40.1551 17.5351C39.9897 17.3224 39.773 17.153 39.5052 17.0269C39.2452 16.893 38.9222 16.826 38.5361 16.826ZM50.2588 23.7628C50.5188 23.6682 50.8852 23.5501 51.3578 23.4082C51.8384 23.2664 52.3623 23.0931 52.9295 22.8883C53.5046 22.6835 54.0876 22.4471 54.6785 22.1793C55.2693 21.9114 55.8051 21.6041 56.2856 21.2575C56.7662 20.9109 57.1601 20.5248 57.4673 20.0994C57.7746 19.6661 57.9282 19.1895 57.9282 18.6695C57.9282 18.3308 57.8731 18.0393 57.7628 17.7951C57.6604 17.543 57.5186 17.3381 57.3374 17.1806C57.1562 17.0151 56.9435 16.893 56.6992 16.8142C56.4629 16.7354 56.2108 16.6961 55.9429 16.6961C55.5648 16.6961 55.1787 16.8418 54.7848 17.1333C54.3988 17.4169 54.0758 17.8226 53.8158 18.3505H50.2588V12.9145C50.574 12.7491 50.9364 12.5797 51.346 12.4064C51.7636 12.2252 52.2402 12.0637 52.7759 11.9219C53.3116 11.7722 53.9182 11.654 54.5958 11.5674C55.2812 11.4728 56.0493 11.4256 56.9001 11.4256C58.1764 11.4256 59.3423 11.5634 60.398 11.8392C61.4537 12.107 62.3597 12.5088 63.116 13.0445C63.8723 13.5724 64.4553 14.2302 64.8649 15.018C65.2825 15.8058 65.4912 16.7158 65.4912 17.7478C65.4912 18.4489 65.3928 19.0831 65.1958 19.6504C64.9989 20.2176 64.7389 20.7336 64.4159 21.1984C64.1008 21.6554 63.7384 22.0611 63.3287 22.4156C62.919 22.7701 62.5015 23.0813 62.0761 23.3492C61.1071 23.9715 59.9726 24.4482 58.6727 24.779H65.3849V29.8486H50.2588V23.7628ZM74.3896 25.5826C74.7678 25.5826 75.0987 25.5353 75.3823 25.4408C75.6659 25.3463 75.9062 25.2202 76.1031 25.0627C76.3001 24.8972 76.4458 24.716 76.5404 24.5191C76.6428 24.3142 76.694 24.1055 76.694 23.8927C76.694 23.7273 76.6625 23.5619 76.5994 23.3964C76.5364 23.231 76.4419 23.0852 76.3158 22.9592C76.1898 22.8331 76.0322 22.7307 75.8431 22.6519C75.6619 22.5732 75.4532 22.5338 75.2168 22.5338H72.1562V19.0359H75.2168C75.4532 19.0359 75.6619 18.9965 75.8431 18.9177C76.0322 18.8389 76.1898 18.7365 76.3158 18.6104C76.4419 18.4844 76.5364 18.3387 76.5994 18.1732C76.6625 18.0078 76.694 17.8423 76.694 17.6769C76.694 17.4642 76.6428 17.2593 76.5404 17.0624C76.4458 16.8576 76.3001 16.6764 76.1031 16.5188C75.9062 16.3534 75.6659 16.2234 75.3823 16.1288C75.0987 16.0343 74.7678 15.987 74.3896 15.987C73.7988 15.987 73.2276 16.121 72.6761 16.3888C72.1246 16.6567 71.6244 17.0742 71.1753 17.6414H67.6183V12.9145C67.9413 12.7806 68.284 12.6506 68.6464 12.5246C69.0088 12.3985 69.3949 12.2804 69.8045 12.1701C70.5214 11.981 71.3683 11.8116 72.3452 11.6619C73.33 11.5044 74.4645 11.4256 75.7486 11.4256C77.1745 11.4256 78.4193 11.595 79.4828 11.9337C80.5464 12.2646 81.4327 12.7018 82.1417 13.2454C82.8508 13.789 83.3786 14.4114 83.7252 15.1125C84.0797 15.8058 84.257 16.5149 84.257 17.2397C84.257 17.8069 84.1822 18.2953 84.0325 18.705C83.8828 19.1147 83.6977 19.4613 83.4771 19.7449C83.2644 20.0206 83.028 20.2452 82.768 20.4185C82.5159 20.5839 82.2835 20.706 82.0708 20.7848C82.2914 20.8794 82.5277 21.0172 82.7798 21.1984C83.0319 21.3717 83.2683 21.6002 83.4889 21.8838C83.7095 22.1674 83.8907 22.5101 84.0325 22.9119C84.1822 23.3137 84.257 23.7864 84.257 24.33C84.257 25.0705 84.0797 25.7914 83.7252 26.4925C83.3786 27.1937 82.8508 27.82 82.1417 28.3715C81.4406 28.9151 80.5543 29.3562 79.4828 29.695C78.4193 30.0259 77.1745 30.1913 75.7486 30.1913C74.7323 30.1913 73.8145 30.148 72.9952 30.0613C72.1837 29.9747 71.4471 29.8605 70.7854 29.7186C70.1315 29.5768 69.5446 29.4193 69.0246 29.246C68.5046 29.0726 68.0359 28.8993 67.6183 28.726V23.9282H71.1753C71.6244 24.4954 72.1246 24.913 72.6761 25.1808C73.2276 25.4487 73.7988 25.5826 74.3896 25.5826Z" fill="#777778"/>
<path d="M4.54985 23.0335C6.77753 23.0335 8.58346 21.2276 8.58346 18.9999C8.58346 16.7722 6.77753 14.9663 4.54985 14.9663C2.32214 14.9663 0.516235 16.7722 0.516235 18.9999C0.516235 21.2276 2.32214 23.0335 4.54985 23.0335Z" stroke="#777778" stroke-width="0.756303" stroke-linecap="round" stroke-linejoin="round"/>
<path d="M4.89443 16.9832C5.12412 16.9832 5.39022 17.0124 5.69275 17.071C6.00087 17.1247 6.22216 17.1857 6.35661 17.254V18.3814H6.03728C5.8188 18.1374 5.56669 17.947 5.28098 17.8104C5.00087 17.6688 4.70955 17.5981 4.40703 17.5981C4.14933 17.5981 3.95325 17.6981 3.8188 17.8982C3.68994 18.0983 3.62552 18.3911 3.62552 18.7767C3.62552 19.2354 3.74036 19.621 3.97006 19.9333C4.19975 20.2408 4.52748 20.3945 4.95325 20.3945C5.27258 20.3945 5.72636 20.1944 6.31459 19.7942L6.56669 20.0724L5.27258 20.9582C5.04849 20.9972 4.77958 21.0168 4.46585 21.0168C4.09611 21.0168 3.76277 20.9338 3.46585 20.7679C3.17454 20.5971 2.94485 20.3677 2.77678 20.0797C2.61431 19.7918 2.53308 19.4746 2.53308 19.1281C2.53308 18.7523 2.65353 18.3985 2.89443 18.0666C3.14092 17.7347 3.44905 17.4712 3.8188 17.276C4.18854 17.0808 4.54709 16.9832 4.89443 16.9832Z" fill="#777778"/>
</svg>
