<svg width="44" height="44" viewBox="0 0 44 44" fill="none" xmlns="http://www.w3.org/2000/svg">
<path d="M22.1909 41.8488C33.2491 41.8488 42.2137 32.8842 42.2137 21.826C42.2137 10.7677 33.2491 1.80322 22.1909 1.80322C11.1326 1.80322 2.16809 10.7677 2.16809 21.826C2.16809 32.8842 11.1326 41.8488 22.1909 41.8488Z" stroke="#777778" stroke-width="3.00342" stroke-linecap="round" stroke-linejoin="round"/>
<path d="M26.8627 35.842V32.1118C26.9128 31.4921 26.8269 30.8689 26.6104 30.2841C26.3942 29.6992 26.0524 29.1658 25.6081 28.7195C29.7995 28.2646 34.2045 26.7178 34.2045 19.6213C34.2041 17.8066 33.4873 16.0615 32.2022 14.7472C32.8107 13.1596 32.7676 11.4048 32.0821 9.8472C32.0821 9.8472 30.5069 9.3923 26.8627 11.7708C23.8032 10.9635 20.5784 10.9635 17.5188 11.7708C13.8747 9.3923 12.2995 9.8472 12.2995 9.8472C11.6139 11.4048 11.5709 13.1596 12.1794 14.7472C10.8848 16.0713 10.1671 17.8321 10.1771 19.6602C10.1771 26.7048 14.5821 28.2516 18.7735 28.7583C18.3344 29.2002 17.9957 29.7272 17.7795 30.3051C17.5633 30.8828 17.4745 31.4983 17.5188 32.1118V35.842" stroke="#777778" stroke-width="3.00342" stroke-linecap="round" stroke-linejoin="round"/>
<path d="M17.5189 33.2427C13.5143 34.5076 10.1772 33.2427 8.17493 29.3435" stroke="#777778" stroke-width="3.00342" stroke-linecap="round" stroke-linejoin="round"/>
</svg>
