<svg width="150" height="55" viewBox="0 0 150 55" fill="none" xmlns="http://www.w3.org/2000/svg">
<g clip-path="url(#clip0_32_1210)">
<path d="M77.6735 18.4312L84.7739 17.9803C84.9359 19.1209 85.2329 19.9696 85.7188 20.5797C86.5018 21.5346 87.5817 22.012 89.0125 22.012C90.0655 22.012 90.9024 21.7733 91.4693 21.2693C92.0093 20.8715 92.3333 20.2349 92.3333 19.5718C92.3333 18.9352 92.0363 18.3252 91.5233 17.9273C90.9834 17.4499 89.7145 16.9724 87.7167 16.548C84.4499 15.8319 82.1011 14.877 80.7242 13.6569C79.3473 12.5164 78.5644 10.8454 78.6184 9.06827C78.6184 7.84817 78.9964 6.62806 79.6983 5.62015C80.5082 4.47962 81.6152 3.5778 82.938 3.07385C84.3689 2.4638 86.3668 2.14551 88.8776 2.14551C91.9553 2.14551 94.3041 2.70251 95.924 3.84304C97.5438 4.95705 98.5158 6.76068 98.8127 9.22742L91.7933 9.62528C91.6043 8.56432 91.2264 7.79512 90.6054 7.29116C89.9845 6.78721 89.1745 6.54849 88.1216 6.54849C87.2577 6.54849 86.6097 6.73416 86.1778 7.07897C85.7728 7.39726 85.5028 7.87469 85.5298 8.40517C85.5298 8.80303 85.7458 9.17437 86.0698 9.41308C86.4208 9.73137 87.2577 10.0231 88.5806 10.2884C91.8473 10.978 94.1691 11.6676 95.6 12.3838C97.0309 13.0999 98.0568 13.9752 98.6778 15.0096C99.3257 16.0706 99.6497 17.2907 99.6227 18.5373C99.6227 20.0227 99.1907 21.508 98.3268 22.7547C97.4359 24.0543 96.194 25.0622 94.7361 25.6723C93.1972 26.3354 91.2534 26.6802 88.9316 26.6802C84.8279 26.6802 81.9931 25.911 80.4003 24.3461C78.8074 22.7812 77.8625 20.8184 77.6735 18.4312ZM2.32269 26.2824V2.56989H14.7687C17.0635 2.56989 18.8453 2.75556 20.0602 3.15342C21.2481 3.52476 22.301 4.29395 23.003 5.32839C23.7859 6.46892 24.1639 7.79512 24.1369 9.17437C24.2179 11.5085 23.003 13.7365 20.9242 14.9036C20.1142 15.3545 19.2233 15.6728 18.3054 15.8319C18.9803 16.0176 19.6553 16.3359 20.2492 16.7072C20.7082 17.0785 21.0861 17.5029 21.4371 17.9538C21.8421 18.4047 22.1931 18.9087 22.49 19.4392L26.1077 26.3089H17.6304L13.6348 19.0148C13.1218 18.0864 12.6898 17.4764 12.2849 17.1846C11.7449 16.8133 11.097 16.6276 10.449 16.6276H9.80107V26.2558H2.32269V26.2824ZM9.80107 12.1716H12.9598C13.6348 12.1185 14.2827 12.0124 14.9306 11.8533C15.4166 11.7737 15.8486 11.5085 16.1455 11.1106C16.8745 10.1558 16.7665 8.80303 15.8756 7.98079C15.3896 7.58293 14.4447 7.37074 13.0948 7.37074H9.80107V12.1716ZM0.621826 46.5997L7.72224 46.1488C7.88423 47.2894 8.1812 48.1381 8.66716 48.7482C9.4231 49.703 10.53 50.207 11.9609 50.207C13.0138 50.207 13.8507 49.9683 14.4177 49.4643C14.9576 49.0399 15.2816 48.4299 15.2816 47.7668C15.2816 47.1302 14.9846 46.5202 14.4717 46.1223C13.9317 45.6449 12.6628 45.1674 10.638 44.7431C7.37127 44.0269 5.02246 43.072 3.64558 41.8519C2.26869 40.7114 1.48576 39.0404 1.53975 37.2633C1.53975 36.0432 1.91772 34.8231 2.61966 33.8152C3.4296 32.6746 4.5365 31.7728 5.85939 31.2689C7.29028 30.6588 9.28811 30.3405 11.7989 30.3405C14.8767 30.3405 17.2255 30.8975 18.8453 32.0381C20.4652 33.1786 21.4101 34.9557 21.7071 37.4224L14.6877 37.8203C14.4987 36.7593 14.1207 35.9901 13.4998 35.4862C12.9058 34.9822 12.0689 34.7435 11.016 34.77C10.152 34.77 9.50409 34.9557 9.07213 35.327C8.64017 35.6453 8.39719 36.1228 8.42418 36.6532C8.42418 37.0511 8.64017 37.4224 8.96414 37.6611C9.31511 37.9794 10.152 38.2712 11.4749 38.5364C14.7417 39.2261 17.0635 39.9157 18.4944 40.6318C19.9252 41.348 20.9512 42.2233 21.5721 43.2577C22.22 44.3187 22.544 45.5388 22.544 46.7589C22.544 48.2442 22.0851 49.703 21.2481 50.9497C20.3572 52.2494 19.1153 53.2573 17.6574 53.8673C16.1186 54.5304 14.1747 54.8752 11.8529 54.8752C7.74924 54.8752 4.91447 54.106 3.3216 52.5411C1.72874 50.9497 0.837808 48.9869 0.621826 46.5997Z" fill="#777778"/>
<path d="M36.5288 44.743L43.0623 46.6792C42.7113 48.2972 41.9824 49.8356 40.9835 51.1883C40.0655 52.3819 38.8506 53.3102 37.4737 53.9203C36.0699 54.5303 34.288 54.8486 32.1282 54.8486C29.5094 54.8486 27.3496 54.4773 25.7027 53.7346C24.0289 52.992 22.598 51.6658 21.3831 49.7825C20.1682 47.8993 19.5742 45.4857 19.5742 42.5415C19.5742 38.6159 20.6271 35.5922 22.76 33.4968C24.8928 31.4014 27.8895 30.3405 31.7772 30.3405C34.828 30.3405 37.2038 30.9505 38.9586 32.1441C40.6865 33.3642 41.9824 35.2209 42.8463 37.7141L36.2588 39.1464C36.0969 38.5894 35.8539 38.0324 35.5299 37.555C35.1249 36.998 34.612 36.5736 33.991 36.2553C33.3701 35.937 32.6681 35.8044 31.9662 35.8044C30.2653 35.8044 28.9694 36.4675 28.0785 37.8202C27.4036 38.8016 27.0526 40.3665 27.0526 42.4884C27.0526 45.1143 27.4576 46.918 28.2675 47.8993C29.0774 48.8807 30.2113 49.3582 31.6962 49.3582C33.1271 49.3582 34.207 48.9603 34.936 48.1911C35.6649 47.3689 36.2048 46.2283 36.5288 44.743ZM51.7826 30.7383H59.234V39.0403H67.3873V30.7383H74.8927V54.4508H67.3873V44.8491H59.234V54.4508H51.7826V30.7383Z" fill="#777778"/>
<path d="M73.8667 42.5945C73.8667 38.722 74.9736 35.6982 77.1604 33.5498C79.3473 31.4013 82.425 30.3138 86.3397 30.3138C90.3623 30.3138 93.4401 31.3748 95.6269 33.4967C97.8137 35.6186 98.8936 38.5893 98.8936 42.4088C98.8936 45.1938 98.4077 47.4484 97.4628 49.2255C96.5448 50.976 95.114 52.4083 93.3591 53.3632C91.5502 54.3446 89.3094 54.8485 86.6367 54.8485C83.9099 54.8485 81.6691 54.4242 79.8872 53.5754C78.0514 52.6736 76.5395 51.2678 75.5406 49.5437C74.4337 47.6871 73.8667 45.3795 73.8667 42.5945ZM81.3181 42.621C81.3181 45.0081 81.777 46.7322 82.668 47.7932C83.5589 48.8276 84.8008 49.3581 86.3667 49.3581C87.9595 49.3581 89.2014 48.8541 90.0924 47.8197C90.9833 46.7852 91.4153 44.9551 91.4153 42.3027C91.4153 40.0747 90.9563 38.4302 90.0384 37.4223C89.1205 36.3878 87.8785 35.8839 86.3127 35.8839C84.9358 35.8308 83.6129 36.4144 82.695 37.4488C81.7771 38.4832 81.3181 40.2073 81.3181 42.621ZM106.534 42.5945C106.534 38.722 107.641 35.6982 109.828 33.5498C112.015 31.4013 115.092 30.3138 119.007 30.3138C123.03 30.3138 126.134 31.3748 128.294 33.4967C130.454 35.6186 131.561 38.5893 131.561 42.4088C131.561 45.1938 131.075 47.4484 130.13 49.2255C129.212 50.976 127.781 52.4083 126.026 53.3632C124.218 54.3446 121.977 54.8485 119.304 54.8485C116.577 54.8485 114.336 54.4242 112.555 53.5754C110.719 52.6736 109.207 51.2678 108.208 49.5437C107.101 47.6871 106.534 45.3795 106.534 42.5945ZM113.985 42.621C113.985 45.0081 114.444 46.7322 115.335 47.7932C116.226 48.8276 117.468 49.3581 119.034 49.3581C120.627 49.3581 121.869 48.8541 122.76 47.8197C123.651 46.7852 124.083 44.9551 124.083 42.3027C124.083 40.0747 123.624 38.4302 122.706 37.4223C121.788 36.3878 120.546 35.8839 118.98 35.8839C117.603 35.8308 116.253 36.4144 115.362 37.4488C114.444 38.4832 113.985 40.2073 113.985 42.621Z" fill="#777778"/>
<path d="M130.778 30.7383H138.23V48.6155H149.866V54.4507H130.751V30.7383H130.778Z" fill="#777778"/>
<path d="M122.565 29.37C130.067 23.8159 132.38 14.4007 127.732 8.34071C123.084 2.28068 113.234 1.87056 105.732 7.42469C98.23 12.9788 95.9166 22.3939 100.565 28.454C105.213 34.514 115.063 34.9241 122.565 29.37Z" fill="white"/>
<mask id="mask0_32_1210" style="mask-type:luminance" maskUnits="userSpaceOnUse" x="98" y="3" width="33" height="31">
<path d="M122.565 29.3698C130.067 23.8156 132.38 14.4005 127.732 8.34046C123.084 2.28043 113.234 1.87032 105.732 7.42444C98.23 12.9786 95.9166 22.3937 100.565 28.4537C105.213 34.5138 115.063 34.9239 122.565 29.3698Z" fill="white"/>
</mask>
<g mask="url(#mask0_32_1210)">
<path d="M81.4327 15.3917L120.2 -13.3096L147.025 21.6631L108.258 50.3644L81.4327 15.3917Z" fill="white"/>
<mask id="mask1_32_1210" style="mask-type:luminance" maskUnits="userSpaceOnUse" x="81" y="-14" width="67" height="65">
<path d="M81.4327 15.3917L120.2 -13.3096L147.025 21.6631L108.258 50.3644L81.4327 15.3917Z" fill="white"/>
</mask>
<g mask="url(#mask1_32_1210)">
<path d="M122.565 29.3695C130.067 23.8154 132.38 14.4002 127.732 8.34022C123.084 2.28019 113.234 1.87007 105.732 7.4242C98.23 12.9783 95.9166 22.3935 100.565 28.4535C105.213 34.5135 115.063 34.9236 122.565 29.3695Z" fill="white"/>
<mask id="mask2_32_1210" style="mask-type:luminance" maskUnits="userSpaceOnUse" x="98" y="3" width="33" height="31">
<path d="M122.565 29.3695C130.067 23.8154 132.38 14.4002 127.732 8.34022C123.084 2.28019 113.234 1.87007 105.732 7.4242C98.23 12.9783 95.9166 22.3935 100.565 28.4535C105.213 34.5135 115.063 34.9236 122.565 29.3695Z" fill="white"/>
</mask>
<g mask="url(#mask2_32_1210)">
<path d="M92.228 17.7267L119.374 -2.37016L136.223 19.5966L109.077 39.6935L92.228 17.7267Z" fill="white"/>
<mask id="mask3_32_1210" style="mask-type:luminance" maskUnits="userSpaceOnUse" x="92" y="-3" width="45" height="43">
<path d="M92.2279 17.7266L119.374 -2.37028L136.223 19.5965L109.077 39.6933L92.2279 17.7266Z" fill="white"/>
</mask>
<g mask="url(#mask3_32_1210)">
<path d="M122.565 29.3694C130.067 23.8153 132.38 14.4001 127.732 8.3401C123.083 2.28007 113.234 1.86995 105.732 7.42408C98.2299 12.9782 95.9165 22.3933 100.565 28.4534C105.213 34.5134 115.063 34.9235 122.565 29.3694Z" fill="white" stroke="#777778" stroke-width="8.06723" stroke-miterlimit="10"/>
</g>
<mask id="mask4_32_1210" style="mask-type:luminance" maskUnits="userSpaceOnUse" x="96" y="-2" width="37" height="41">
<path d="M96.0963 30.8625L105.401 -1.18121L132.377 6.45666L123.072 38.5004L96.0963 30.8625Z" fill="white"/>
</mask>
<g mask="url(#mask4_32_1210)">
<path d="M92.2279 17.6754L119.323 -2.37022L136.223 19.6478L109.127 39.6934L92.2279 17.6754Z" stroke="#777778" stroke-width="8.06723" stroke-miterlimit="10"/>
</g>
<path d="M122.565 29.3695C130.067 23.8154 132.38 14.4002 127.732 8.34022C123.084 2.28019 113.234 1.87007 105.732 7.4242C98.23 12.9783 95.9166 22.3935 100.565 28.4535C105.213 34.5135 115.063 34.9236 122.565 29.3695Z" stroke="#777778" stroke-width="8.06723" stroke-miterlimit="10"/>
<path d="M92.228 17.7267L119.374 -2.37016L136.223 19.5966L109.077 39.6935L92.228 17.7267Z" fill="white"/>
<mask id="mask5_32_1210" style="mask-type:luminance" maskUnits="userSpaceOnUse" x="92" y="-3" width="45" height="43">
<path d="M92.2279 17.7266L119.374 -2.37028L136.223 19.5965L109.077 39.6933L92.2279 17.7266Z" fill="white"/>
</mask>
<g mask="url(#mask5_32_1210)">
<path d="M122.565 29.3694C130.067 23.8153 132.38 14.4001 127.732 8.3401C123.083 2.28007 113.234 1.86995 105.732 7.42408C98.2299 12.9782 95.9165 22.3933 100.565 28.4534C105.213 34.5134 115.063 34.9235 122.565 29.3694Z" fill="white" stroke="#777778" stroke-width="8.06723" stroke-miterlimit="10"/>
</g>
<mask id="mask6_32_1210" style="mask-type:luminance" maskUnits="userSpaceOnUse" x="96" y="-2" width="37" height="41">
<path d="M96.0963 30.8625L105.401 -1.18121L132.377 6.45666L123.072 38.5004L96.0963 30.8625Z" fill="white"/>
</mask>
<g mask="url(#mask6_32_1210)">
<path d="M92.2279 17.6754L119.323 -2.37022L136.223 19.6478L109.127 39.6934L92.2279 17.6754Z" stroke="#777778" stroke-width="8.06723" stroke-miterlimit="10"/>
</g>
<path d="M81.4327 15.3915L120.2 -13.3098L147.025 21.6629L108.258 50.3642L81.4327 15.3915Z" stroke="#777778" stroke-width="8.06723" stroke-miterlimit="10"/>
</g>
<path d="M122.565 29.3695C130.067 23.8154 132.38 14.4002 127.732 8.34022C123.084 2.28019 113.234 1.87007 105.732 7.4242C98.23 12.9783 95.9166 22.3935 100.565 28.4535C105.213 34.5135 115.063 34.9236 122.565 29.3695Z" stroke="#777778" stroke-width="8.06723" stroke-miterlimit="10"/>
<path d="M106.561 16.6539L109.261 14.7972L112.581 19.4389C113.148 20.1816 113.58 20.9773 113.904 21.8526C114.093 22.5157 114.039 23.2318 113.769 23.8684C113.418 24.6641 112.851 25.3272 112.095 25.8046C111.204 26.4147 110.449 26.7595 109.801 26.8656C109.18 26.9717 108.532 26.8656 107.938 26.6004C107.29 26.2821 106.723 25.8312 106.291 25.2476L108.613 23.1257C108.802 23.4175 109.045 23.6827 109.315 23.8949C109.504 24.0275 109.72 24.1071 109.963 24.1071C110.152 24.1071 110.341 24.0275 110.476 23.9214C110.746 23.7623 110.935 23.444 110.908 23.1257C110.827 22.6748 110.638 22.2239 110.341 21.8791L106.561 16.6539ZM114.66 19.598L117.117 17.6883C117.387 18.0066 117.738 18.2453 118.116 18.3779C118.656 18.5371 119.223 18.431 119.682 18.0862C120.006 17.874 120.276 17.5822 120.384 17.2109C120.546 16.7334 120.276 16.203 119.79 16.0438C119.709 16.0173 119.628 15.9908 119.547 15.9908C119.223 15.9642 118.656 16.0969 117.819 16.4417C116.442 16.9987 115.362 17.2109 114.552 17.1313C113.769 17.0517 113.04 16.6539 112.608 15.9908C112.284 15.5399 112.122 15.0094 112.095 14.4789C112.095 13.8688 112.257 13.2588 112.608 12.7548C113.121 12.0387 113.742 11.4286 114.498 10.9512C115.632 10.182 116.631 9.81067 117.495 9.81067C118.359 9.81067 119.169 10.2085 119.925 11.0308L117.495 12.914C117.009 12.3039 116.091 12.1713 115.47 12.6487L115.389 12.7283C115.119 12.8875 114.93 13.1262 114.822 13.4179C114.741 13.6301 114.795 13.8688 114.93 14.0545C115.038 14.1871 115.2 14.2932 115.389 14.2932C115.605 14.3198 115.983 14.2137 116.523 13.9749C117.873 13.4179 118.899 13.0996 119.601 12.9935C120.195 12.8875 120.816 12.9405 121.383 13.1792C121.896 13.3914 122.328 13.7627 122.625 14.2137C123.003 14.7441 123.219 15.3807 123.246 16.0438C123.272 16.7334 123.084 17.3965 122.706 17.9801C122.22 18.6962 121.599 19.3063 120.87 19.7837C119.385 20.7916 118.17 21.216 117.198 21.0568C116.145 20.8977 115.281 20.3672 114.66 19.598Z" fill="#777778"/>
</g>
</g>
</g>
<defs>
<clipPath id="clip0_32_1210">
<rect width="149.244" height="54.4538" fill="white" transform="translate(0.621826 0.394897)"/>
</clipPath>
</defs>
</svg>
