<svg width="17" height="25" viewBox="0 0 17 25" fill="none" xmlns="http://www.w3.org/2000/svg">
<g id="&#240;&#159;&#166;&#134; icon &#34;figma&#34;">
<path id="Vector" d="M0.834991 4.75C0.834991 3.75544 1.23008 2.80161 1.93334 2.09835C2.6366 1.39509 3.59043 1 4.58499 1H8.33499V8.5H4.58499C3.59043 8.5 2.6366 8.10491 1.93334 7.40165C1.23008 6.69839 0.834991 5.74456 0.834991 4.75Z" stroke="#515151" stroke-width="1.20345" stroke-linecap="round" stroke-linejoin="round"/>
<path id="Vector_2" d="M8.33499 1.00002H12.085C12.5775 1.00002 13.0651 1.09702 13.5201 1.28547C13.975 1.47393 14.3884 1.75014 14.7366 2.09837C15.0849 2.44659 15.3611 2.85998 15.5495 3.31495C15.738 3.76993 15.835 4.25755 15.835 4.75002C15.835 5.24248 15.738 5.7301 15.5495 6.18508C15.3611 6.64005 15.0849 7.05344 14.7366 7.40167C14.3884 7.74989 13.975 8.0261 13.5201 8.21457C13.0651 8.40302 12.5775 8.50002 12.085 8.50002H8.33499V1.00002Z" stroke="#515151" stroke-width="1.20345" stroke-linecap="round" stroke-linejoin="round"/>
<path id="Vector_3" d="M8.33499 12.25C8.33499 11.7575 8.43199 11.2699 8.62049 10.8149C8.80887 10.36 9.08512 9.94664 9.43337 9.59837C9.78162 9.25014 10.195 8.97393 10.6499 8.78547C11.1049 8.59702 11.5925 8.50002 12.085 8.50002C12.5775 8.50002 13.0651 8.59702 13.5201 8.78547C13.975 8.97393 14.3884 9.25014 14.7366 9.59837C15.0849 9.94664 15.3611 10.36 15.5495 10.8149C15.738 11.2699 15.835 11.7575 15.835 12.25C15.835 12.7425 15.738 13.2301 15.5495 13.6851C15.3611 14.14 15.0849 14.5534 14.7366 14.9016C14.3884 15.2499 13.975 15.5261 13.5201 15.7145C13.0651 15.903 12.5775 16 12.085 16C11.5925 16 11.1049 15.903 10.6499 15.7145C10.195 15.5261 9.78162 15.2499 9.43337 14.9016C9.08512 14.5534 8.80887 14.14 8.62049 13.6851C8.43199 13.2301 8.33499 12.7425 8.33499 12.25Z" stroke="#515151" stroke-width="1.20345" stroke-linecap="round" stroke-linejoin="round"/>
<path id="Vector_4" d="M0.834991 19.75C0.834991 18.7555 1.23008 17.8016 1.93334 17.0984C2.6366 16.3951 3.59043 16 4.58499 16H8.33499V19.75C8.33499 20.7445 7.93987 21.6984 7.23662 22.4016C6.53337 23.1049 5.57955 23.5 4.58499 23.5C3.59043 23.5 2.6366 23.1049 1.93334 22.4016C1.23008 21.6984 0.834991 20.7445 0.834991 19.75Z" stroke="#515151" stroke-width="1.20345" stroke-linecap="round" stroke-linejoin="round"/>
<path id="Vector_5" d="M0.834991 12.25C0.834991 11.2555 1.23008 10.3016 1.93334 9.59837C2.6366 8.8951 3.59043 8.50002 4.58499 8.50002H8.33499V16H4.58499C3.59043 16 2.6366 15.6049 1.93334 14.9016C1.23008 14.1984 0.834991 13.2445 0.834991 12.25Z" stroke="#515151" stroke-width="1.20345" stroke-linecap="round" stroke-linejoin="round"/>
</g>
</svg>
