<svg width="17" height="18" viewBox="0 0 17 18" fill="none" xmlns="http://www.w3.org/2000/svg">
<g id="&#240;&#159;&#166;&#134; icon &#34;github&#34;">
<path id="Vector" d="M11.6042 16.4052V14.1975C11.6331 13.8308 11.5835 13.462 11.4588 13.1158C11.3341 12.7697 11.1372 12.454 10.8811 12.1898C13.2965 11.9206 15.835 11.0052 15.835 6.80523C15.8348 5.73125 15.4217 4.69846 14.6811 3.92061C15.0318 2.981 15.007 1.94242 14.6119 1.02061C14.6119 1.02061 13.7042 0.751379 11.6042 2.15907C9.84114 1.68124 7.98268 1.68124 6.2196 2.15907C4.1196 0.751379 3.21191 1.02061 3.21191 1.02061C2.81681 1.94242 2.79201 2.981 3.14267 3.92061C2.39661 4.70423 1.98307 5.74636 1.98883 6.8283C1.98883 10.9975 4.52728 11.9129 6.94267 12.2129C6.68959 12.4745 6.49441 12.7863 6.36983 13.1282C6.24525 13.4702 6.19406 13.8345 6.2196 14.1975V16.4052" stroke="#515151" stroke-width="1.22625" stroke-linecap="round" stroke-linejoin="round"/>
<path id="Vector_2" d="M6.21961 14.8667C3.91191 15.6153 1.98884 14.8667 0.834991 12.559" stroke="#515151" stroke-width="1.22625" stroke-linecap="round" stroke-linejoin="round"/>
</g>
</svg>
