<svg width="17" height="16" viewBox="0 0 17 16" fill="none" xmlns="http://www.w3.org/2000/svg">
<g id="&#240;&#159;&#166;&#134; icon &#34;headset help&#34;">
<path id="Vector" d="M14.335 6.99998C14.335 3.68627 11.6487 0.999985 8.33499 0.999985C5.02128 0.999985 2.33499 3.68627 2.33499 6.99998" stroke="#515151" stroke-width="1.19559" stroke-linecap="round" stroke-linejoin="round"/>
<path id="Vector_2" d="M0.834991 10.3288V8.9212C0.834991 8.23285 1.30343 7.63293 1.97119 7.46598L3.27585 7.1398C3.55987 7.06878 3.83499 7.28358 3.83499 7.57638V11.6736C3.83499 11.9664 3.55987 12.1812 3.27585 12.1102L1.97119 11.784C1.30343 11.6171 0.834991 11.0172 0.834991 10.3288Z" stroke="#515151" stroke-width="1.19559"/>
<path id="Vector_3" d="M15.835 10.3288V8.9212C15.835 8.23285 15.3665 7.63293 14.6988 7.46598L13.3941 7.1398C13.1101 7.06878 12.835 7.28358 12.835 7.57638V11.6736C12.835 11.9664 13.1101 12.1812 13.3941 12.1102L14.6988 11.784C15.3665 11.6171 15.835 11.0172 15.835 10.3288Z" stroke="#515151" stroke-width="1.19559"/>
<path id="Vector_4" d="M14.335 12.25V12.625C14.335 13.4534 13.6635 14.125 12.835 14.125H10.21" stroke="#515151" stroke-width="1.19559"/>
<path id="Vector_5" d="M9.46002 15.25H7.21002C6.5887 15.25 6.08502 14.7463 6.08502 14.125C6.08502 13.5037 6.5887 13 7.21002 13H9.46002C10.0813 13 10.585 13.5037 10.585 14.125C10.585 14.7463 10.0813 15.25 9.46002 15.25Z" stroke="#515151" stroke-width="1.19559"/>
</g>
</svg>
